# Blender 3.6.4
# www.blender.org
o Cone
v 0.475528 -0.496556 -0.154508
v -0.000000 -0.496556 -0.500000
v 0.293893 -0.496556 0.404509
v -0.293893 -0.496556 0.404509
v -0.475528 -0.496556 -0.154508
v -0.000000 0.503444 0.000000
vn 0.5449 0.3750 -0.7500
vn 0.8817 0.3750 0.2865
vn -0.0000 0.3750 0.9270
vn -0.0000 -1.0000 -0.0000
vn -0.8817 0.3750 0.2865
vn -0.5449 0.3750 -0.7500
vt 0.256667 0.898384
vt 0.383689 -0.009000
vt 0.428689 0.912000
vt 0.617379 0.915000
vt 0.387379 -0.003000
vt 0.811068 0.903384
vt 0.813689 0.907070
vt 0.388128 -0.009000
vt 0.997567 0.892070
vt 0.750000 0.490000
vt 0.978254 0.324164
vt 0.891068 0.055836
vt 0.608932 0.055836
vt 0.521746 0.324164
vt 0.430356 0.912384
vt 0.384045 -0.001000
vt 0.609045 0.916000
vt 0.050000 0.887000
vt 0.376667 -0.005000
vt 0.248689 0.891384
s 0
f 2/1/1 6/2/1 1/3/1
f 1/4/2 6/5/2 3/6/2
f 3/7/3 6/8/3 4/9/3
f 2/10/4 1/11/4 3/12/4 4/13/4 5/14/4
f 4/15/5 6/16/5 5/17/5
f 5/18/6 6/19/6 2/20/6
