# Blender 3.6.4
# www.blender.org
o Plane
v -0.017795 -0.732911 -0.000671
v 0.001054 2.134845 -0.006287
v 0.883154 0.183439 0.293412
v -0.882970 0.145599 0.384081
vn 0.4056 -0.0009 0.9141
vn -0.3139 0.0039 0.9494
vt 0.162810 0.263207
vt 0.996196 0.857016
vt 0.349938 0.999099
vt 0.552784 -0.001613
s 0
f 1/1/1 2/2/1 4/3/1
f 3/4/2 2/2/2 1/1/2
o Plane.001
v -0.510373 -1.381099 0.510118
v -1.702028 1.208085 0.193099
v -0.062025 -0.144015 0.590744
v -1.637409 -0.886016 0.901302
vn 0.4281 0.3014 0.8520
vn -0.2223 0.0170 0.9748
vt 0.162810 0.263207
vt 0.996196 0.857016
vt 0.349938 0.999099
vt 0.552784 -0.001613
s 0
f 5/5/3 6/6/3 8/7/3
f 7/8/4 6/6/4 5/5/4
o Plane.002
v 0.166900 -1.141664 0.444782
v 0.204989 0.581647 1.008807
v 0.710106 -0.682618 0.879843
v -0.402846 -0.655229 0.770401
vn 0.2624 -0.3054 0.9154
vn -0.4540 -0.2681 0.8497
vt 0.162810 0.263207
vt 0.996196 0.857016
vt 0.349938 0.999099
vt 0.552784 -0.001613
s 0
f 9/9/5 10/10/5 12/11/5
f 11/12/6 10/10/6 9/9/6
o Plane.003
v 0.506030 -1.240374 0.430419
v 1.829498 1.203095 -0.278321
v 1.754374 -0.912692 0.161806
v 0.392846 -0.029426 0.865319
vn 0.7030 -0.1813 0.6877
vn 0.1569 0.1958 0.9680
vt 0.162810 0.263207
vt 0.996196 0.857016
vt 0.349938 0.999099
vt 0.552784 -0.001613
s 0
f 13/13/7 14/14/7 16/15/7
f 15/16/8 14/14/8 13/13/8
o Plane.004
v 0.272352 -1.005531 0.471394
v 1.870752 -1.650796 1.035419
v 0.509549 -1.676003 0.906456
v 0.928886 -0.644708 0.797013
vn -0.3785 -0.1374 0.9154
vn -0.0901 0.5195 0.8497
vt 0.162810 0.263207
vt 0.996196 0.857016
vt 0.349938 0.999099
vt 0.552784 -0.001613
s 0
f 17/17/9 18/18/9 20/19/9
f 19/20/10 18/18/10 17/17/10
o Plane.005
v -0.105839 -0.829211 0.592187
v -1.645382 -1.787619 0.617440
v -0.872966 -0.692157 0.888510
v -0.262437 -1.617445 0.738549
vn -0.1101 0.2026 0.9731
vn 0.2659 -0.4041 0.8752
vt 0.162810 0.263207
vt 0.996196 0.857016
vt 0.349938 0.999099
vt 0.552784 -0.001613
s 0
f 21/21/11 22/22/11 24/23/11
f 23/24/12 22/22/12 21/21/12
